# Blender v2.79 (sub 0) OBJ File: ''
# www.blender.org
mtllib Cube.mtl
o Cube.001
v -0.134963 -0.185212 0.237404
v 0.134964 -0.185212 -0.237404
v -0.134963 -0.185212 -0.237404
v -0.134963 0.185212 -0.237404
v 0.134964 0.185212 0.237404
v -0.134963 0.185212 0.237405
v 0.134964 -0.185212 0.237404
v 0.134964 0.185212 -0.237404
vt 0.534099 0.999999
vt 0.267050 0.500000
vt 0.534099 0.500000
vt 0.267050 1.000000
vt 0.000000 0.500001
vt 0.267049 0.500000
vt 0.000000 0.500000
vt 0.366475 0.000001
vt 0.366475 0.500000
vt 1.000000 0.390077
vt 0.732951 0.000000
vt 1.000000 0.000000
vt 0.732950 0.000000
vt 0.366475 0.499999
vt 0.366475 0.000000
vt 0.801149 0.890077
vt 0.534099 0.890077
vt 0.267050 0.999999
vt 0.000000 1.000000
vt 0.000000 0.000000
vt 0.732951 0.390077
vt 0.732951 0.499999
vt 0.801149 0.500000
vn 0.0000 1.0000 0.0000
vn -0.0000 -1.0000 -0.0000
vn 1.0000 -0.0000 0.0000
vn -0.0000 0.0000 -1.0000
vn -1.0000 0.0000 0.0000
vn 0.0000 -0.0000 1.0000
usemtl Material.001
s 1
f 1/1/1 2/2/1 3/3/1
f 4/4/2 5/5/2 6/6/2
f 4/7/3 1/8/3 3/9/3
f 6/10/4 7/11/4 1/12/4
f 5/13/5 2/14/5 7/15/5
f 3/3/6 8/16/6 4/17/6
f 1/1/1 7/18/1 2/2/1
f 4/4/2 8/19/2 5/5/2
f 4/7/3 6/20/3 1/8/3
f 6/10/4 5/21/4 7/11/4
f 5/13/5 8/22/5 2/14/5
f 3/3/6 2/23/6 8/16/6
